<svg width="48" height="48" viewBox="0 0 48 48" fill="none" xmlns="http://www.w3.org/2000/svg">
<path fill-rule="evenodd" clip-rule="evenodd" d="M24 0C10.752 0 0 10.752 0 24C0 37.248 10.752 48 24 48C37.224 48 48 37.248 48 24C48 10.752 37.224 0 24 0ZM39.852 11.064C42.8069 14.6616 44.4425 19.1617 44.487 23.817C43.809 23.688 37.041 22.308 30.222 23.166C30.066 22.83 29.934 22.464 29.778 22.101C29.361 21.111 28.893 20.097 28.425 19.131C35.973 16.062 39.411 11.637 39.855 11.061L39.852 11.064ZM24 3.54C29.205 3.54 33.969 5.49 37.59 8.694C37.224 9.216 34.125 13.353 26.838 16.086C23.478 9.918 19.758 4.866 19.185 4.086C20.7636 3.71881 22.3793 3.53559 24 3.54ZM15.279 5.466C18.0266 9.27273 20.5644 13.2266 22.881 17.31C13.302 19.86 4.842 19.809 3.93 19.809C4.59064 16.7066 5.95845 13.7986 7.92692 11.3113C9.89538 8.82407 12.4114 6.82174 15.279 5.466ZM3.489 24.03V23.4C4.374 23.43 14.319 23.559 24.549 20.487C25.146 21.63 25.692 22.803 26.214 23.973L25.404 24.207C14.838 27.618 9.216 36.936 8.745 37.719C5.36121 33.9613 3.48881 29.0837 3.489 24.027V24.03ZM24 44.511C19.4452 44.5147 15.0202 42.9939 11.43 40.191C11.79 39.435 15.957 31.419 27.513 27.384C27.567 27.357 27.591 27.357 27.645 27.333C29.5923 32.3624 31.0559 37.5659 32.016 42.873C29.4846 43.9628 26.756 44.5203 24 44.511ZM35.43 40.998C35.22 39.747 34.125 33.762 31.446 26.394C37.875 25.38 43.497 27.045 44.199 27.279C43.7624 30.0472 42.7577 32.6951 41.2481 35.0561C39.7384 37.4171 37.7565 39.4402 35.427 40.998H35.43Z" fill="#25282B"/>
</svg>
