<svg width="48" height="48" viewBox="0 0 48 48" fill="none" xmlns="http://www.w3.org/2000/svg">
<path d="M13.962 9C15.345 9 16.623 9.105 17.796 9.42C18.966 9.63 19.929 10.068 20.784 10.593C21.639 11.118 22.275 11.871 22.707 12.834C23.127 13.794 23.355 14.967 23.355 16.245C23.355 17.733 23.037 19.011 22.287 19.971C21.642 20.931 20.589 21.789 19.296 22.422C21.114 22.95 22.497 23.91 23.34 25.188C24.183 26.466 24.723 28.059 24.723 29.877C24.723 31.365 24.408 32.643 23.868 33.711C23.3313 34.7873 22.5225 35.7046 21.522 36.372C20.562 37.017 19.389 37.542 18.111 37.86C16.8593 38.1915 15.5717 38.3688 14.277 38.388L0 38.409V9H13.962ZM13.107 20.934C14.277 20.934 15.237 20.619 15.978 20.079C16.716 19.539 17.043 18.588 17.043 17.418C17.043 16.77 16.938 16.14 16.728 15.717C16.4988 15.2896 16.1694 14.9242 15.768 14.652C15.3334 14.4133 14.8681 14.2357 14.385 14.124C13.857 14.019 13.317 14.019 12.684 14.019H6.51V20.949C6.51 20.934 13.107 20.934 13.107 20.934ZM13.422 33.513C14.067 33.513 14.7 33.408 15.24 33.303C15.768 33.198 16.308 32.985 16.728 32.655C17.148 32.325 17.478 32.01 17.796 31.485C18.006 30.957 18.216 30.312 18.216 29.562C18.216 28.074 17.796 27.006 16.938 26.256C16.083 25.611 14.91 25.296 13.527 25.296H6.51V33.498H13.425L13.422 33.513ZM33.996 33.408C34.852 34.262 36.13 34.688 37.83 34.686C39 34.686 40.068 34.368 40.926 33.828C41.778 33.188 42.308 32.548 42.516 31.908H47.736C46.878 34.461 45.6 36.279 43.902 37.452C42.204 38.517 40.173 39.15 37.722 39.15C36.1545 39.1595 34.5996 38.8693 33.141 38.295C31.8261 37.8098 30.6535 37.0033 29.73 35.949C28.7424 34.9683 28.0092 33.7614 27.594 32.433C27.069 31.05 26.844 29.562 26.844 27.849C26.844 26.256 27.054 24.753 27.594 23.37C28.134 21.99 28.872 20.814 29.835 19.749C30.795 18.789 31.968 17.931 33.246 17.403C34.6706 16.8344 36.1911 16.5441 37.725 16.548C39.543 16.548 41.136 16.863 42.519 17.613C43.899 18.363 44.97 19.209 45.825 20.487C46.68 21.657 47.313 23.04 47.748 24.531C47.958 26.019 48.063 27.519 47.958 29.22H32.508C32.508 30.96 33.138 32.55 33.996 33.408ZM40.716 22.212C39.966 21.462 38.79 21.039 37.407 21.039C36.447 21.039 35.709 21.249 35.064 21.567C34.419 21.885 33.996 22.317 33.576 22.737C33.1843 23.1491 32.9234 23.6679 32.826 24.228C32.718 24.753 32.616 25.188 32.616 25.608H42.204C41.994 24.03 41.457 22.962 40.716 22.212ZM31.335 11.028H43.269V13.899H31.335V11.028Z" fill="#25282B"/>
</svg>
